<svg width="108" height="100" viewBox="0 0 108 100" fill="none" xmlns="http://www.w3.org/2000/svg">
<rect x="4" width="100" height="100" rx="30" fill="black"/>
<path d="M35.0363 61H18.2363V57.64H27.8363V41.56H27.3563L19.6763 49.24L17.2763 46.792L26.5883 37.48H31.6763V57.64H35.0363V61ZM64.0538 61H59.1578L49.1738 50.92H59.7338V40.84H47.2538V61H43.4138V44.152L46.7738 40.84H43.4138V37.48H60.2138C61.1098 37.48 61.8938 37.816 62.5658 38.488C63.2378 39.16 63.5738 39.944 63.5738 40.84V49.96C63.5738 52.52 62.4538 53.8 60.2138 53.8H57.3338V54.328L64.0538 61ZM90.9431 57.64C90.9431 58.568 90.6071 59.368 89.9351 60.04C89.2951 60.68 88.5111 61 87.5831 61H74.1431C73.2151 61 72.4151 60.68 71.7431 60.04C71.1031 59.368 70.7831 58.568 70.7831 57.64V40.84C70.7831 39.912 71.1031 39.128 71.7431 38.488C72.4151 37.816 73.2151 37.48 74.1431 37.48H87.5831C88.5111 37.48 89.2951 37.816 89.9351 38.488C90.6071 39.128 90.9431 39.912 90.9431 40.84V44.2H87.1031V40.84H74.6231V57.64H87.1031V54.28H90.9431V57.64Z" fill="#A3DE82"/>
</svg>
